<svg width="102" height="102" viewBox="0 0 102 102" fill="none" xmlns="http://www.w3.org/2000/svg">
<g clip-path="url(#clip0_2235_88)">
<path d="M51 101C78.614 101 101 78.614 101 51C101 23.386 78.614 1 51 1M51 101C23.386 101 1 78.614 1 51C1 23.386 23.386 1 51 1M51 101C64.692 101 75.792 78.614 75.792 51C75.792 23.386 64.692 1 51 1M51 101C37.308 101 26.208 78.614 26.208 51C26.208 23.386 37.308 1 51 1M51 101V1.417M5.447 32.162C13.307 35.409 30.747 37.667 51 37.667C71.253 37.667 88.694 35.409 96.553 32.162M23.708 9.543C28.201 11.703 39.422 13.205 51 13.205C62.578 13.205 73.59 11.703 78.083 9.543M23.5 92.37C27.993 90.21 39.422 88.707 51 88.707C62.578 88.707 74.111 90.21 78.604 92.37M4.438 67.963C12.297 64.716 30.748 62.458 51 62.458C71.253 62.458 90.016 64.716 97.875 67.963" stroke="white"/>
</g>
<defs>
<clipPath id="clip0_2235_88">
<rect width="102" height="102" fill="white"/>
</clipPath>
</defs>
</svg>
