<svg width="100" height="100" viewBox="0 0 100 100" fill="none" xmlns="http://www.w3.org/2000/svg">
<g clip-path="url(#clip0_2277_20)">
<path d="M50.0029 100C22.4319 100 0.00292969 77.57 0.00292969 50.001C0.00392969 22.433 22.4329 0 50.0039 0C77.5729 0 99.9999 22.43 99.9999 50.001C99.9999 77.572 77.5709 100 50.0029 100ZM50.0029 0.982C22.9759 0.982 0.98293 22.975 0.98293 50.002C0.98293 77.029 22.9759 99.018 50.0029 99.018C77.0319 99.018 99.0199 77.03 99.0199 50.001C99.0199 22.975 77.0319 0.982 50.0029 0.982ZM50.0029 89.899C28.0019 89.899 10.1069 71.999 10.1069 50.001C10.1069 28.003 28.0019 10.106 50.0029 10.106C72.0029 10.106 89.8999 28 89.8999 50.001C89.8999 72.002 71.9999 89.899 50.0029 89.899ZM50.0029 11.088C28.5459 11.088 11.0889 28.545 11.0889 50.001C11.0889 71.461 28.5459 88.918 50.0029 88.918C71.4619 88.918 88.9189 71.458 88.9189 50.001C88.9189 28.547 71.4589 11.088 50.0029 11.088ZM50.0029 79.793C48.0514 79.7941 46.1046 79.6021 44.1909 79.22C42.2766 78.8418 40.4047 78.274 38.6029 77.525C35.8955 76.4028 33.3678 74.8886 31.1009 73.031C29.5919 71.7934 28.2086 70.41 26.9709 68.901C25.1123 66.6356 23.598 64.1084 22.4769 61.401C21.7275 59.5992 21.1594 57.7273 20.7809 55.813C20.206 52.939 20.0611 49.9956 20.3509 47.079C20.5386 45.1365 20.9198 43.2177 21.4889 41.351C21.7724 40.4182 22.1011 39.4998 22.4739 38.599C23.9741 34.9854 26.1689 31.7013 28.9339 28.933C30.3135 27.5523 31.8258 26.311 33.4489 25.227C34.2592 24.6845 35.0962 24.1832 35.9569 23.725C36.8169 23.2637 37.6979 22.847 38.5999 22.475C40.4017 21.726 42.2736 21.1582 44.1879 20.78C46.1016 20.3979 48.0484 20.2059 49.9999 20.207C50.9759 20.207 51.9499 20.2547 52.9219 20.35C54.8643 20.5383 56.7831 20.9195 58.6499 21.488C59.5833 21.772 60.5009 22.1 61.4029 22.472C63.2051 23.2206 64.93 24.1433 66.5529 25.227C71.8678 28.7774 75.8994 33.9436 78.0517 39.9619C80.204 45.9802 80.3629 52.5314 78.5049 58.647C77.6512 61.4487 76.3904 64.1098 74.7629 66.545C73.6807 68.1682 72.4396 69.6796 71.0579 71.057C69.6803 72.4387 68.1685 73.6798 66.5449 74.762C64.1105 76.3907 61.4492 77.6516 58.6469 78.504C57.7149 78.788 56.7699 79.025 55.8119 79.215C53.8991 79.5993 51.9539 79.7929 50.0029 79.793ZM50.0029 21.191C49.0589 21.1897 48.1179 21.2357 47.1799 21.329C46.2399 21.4203 45.3076 21.5583 44.3829 21.743C42.5318 22.1128 40.7212 22.6624 38.9769 23.384C35.4823 24.8334 32.3062 26.9549 29.6289 29.628C28.2924 30.961 27.0922 32.4239 26.0459 33.995C24.9957 35.5634 24.1034 37.2318 23.3819 38.976C22.296 41.5939 21.6038 44.3582 21.3279 47.179C21.2346 48.117 21.1886 49.0577 21.1899 50.001C21.1886 50.9463 21.2346 51.8883 21.3279 52.827C21.4186 53.767 21.5566 54.699 21.7419 55.623C21.9266 56.549 22.1556 57.463 22.4289 58.365C22.7023 59.269 23.0199 60.157 23.3819 61.029C24.1048 62.7719 24.996 64.4402 26.0429 66.01C28.6779 69.9473 32.2405 73.1764 36.4169 75.413C38.918 76.7471 41.6012 77.7073 44.3809 78.263C45.3049 78.4443 46.2369 78.582 47.1769 78.676C48.1169 78.7673 49.0579 78.8133 49.9999 78.814C50.9439 78.814 51.8856 78.768 52.8249 78.676C60.4287 77.9233 67.4233 74.1848 72.2739 68.281C72.8722 67.5522 73.4345 66.7946 73.9589 66.011C74.4825 65.2261 74.9674 64.4162 75.4119 63.584C75.8559 62.7527 76.2586 61.901 76.6199 61.029C77.3412 59.2847 77.8905 57.4741 78.2599 55.623C78.6268 53.7715 78.812 51.8885 78.8129 50.001C78.8089 44.7853 77.39 39.6683 74.7075 35.1953C72.0249 30.7224 68.1792 27.0609 63.5799 24.601C61.9169 23.7094 60.1697 22.9845 58.3639 22.437C55.6528 21.6152 52.8359 21.1961 50.0029 21.191ZM50.0029 69.69C49.3584 69.6908 48.7142 69.6587 48.0729 69.594C47.4318 69.5308 46.794 69.4367 46.1619 69.312C45.5297 69.1853 44.904 69.0281 44.2869 68.841C43.6703 68.655 43.0635 68.4377 42.4689 68.19C41.8723 67.9447 41.2899 67.6697 40.7219 67.365C39.0135 66.4522 37.449 65.2924 36.0789 63.923C35.6226 63.4676 35.1897 62.9894 34.7819 62.49C34.3725 61.9925 33.9887 61.4745 33.6319 60.938C32.9136 59.8667 32.3039 58.7263 31.8119 57.534C30.0695 53.3257 29.8396 48.6435 31.1613 44.2847C32.483 39.9258 35.2747 36.1599 39.0609 33.628C39.5981 33.2721 40.1513 32.9411 40.7189 32.636C43.5729 31.1059 46.7616 30.3067 49.9999 30.31C50.6466 30.3087 51.2909 30.3407 51.9329 30.406C52.5743 30.468 53.2113 30.5613 53.8439 30.686C54.4746 30.8133 55.0989 30.9707 55.7169 31.158C58.8155 32.0981 61.6344 33.7878 63.924 36.0775C66.2136 38.3673 67.9031 41.1863 68.8429 44.285C69.0309 44.9023 69.1873 45.527 69.3119 46.159C69.4386 46.7923 69.5333 47.4297 69.5959 48.071C69.6606 48.7137 69.6926 49.357 69.6919 50.001C69.6824 53.8933 68.5259 57.6964 66.3669 60.935C66.0072 61.4687 65.6231 61.9856 65.2159 62.484C64.3994 63.4826 63.4848 64.3969 62.4859 65.213C61.9899 65.621 61.4709 66.004 60.9379 66.363C59.3277 67.4375 57.5687 68.27 55.7169 68.834C54.4833 69.208 53.2164 69.4618 51.9339 69.592C51.2919 69.6547 50.6486 69.687 50.0039 69.689L50.0029 69.69ZM50.0029 31.294C46.9265 31.2976 43.8979 32.0561 41.1829 33.503C40.6437 33.7925 40.1187 34.1078 39.6099 34.448C39.0999 34.786 38.6079 35.1507 38.1339 35.542C36.7095 36.7068 35.4668 38.0775 34.4469 39.609C34.1063 40.1183 33.7919 40.6433 33.5039 41.184C32.343 43.3491 31.6224 45.7228 31.3839 48.168C31.145 50.6131 31.3875 53.0812 32.0979 55.433C32.2773 56.0183 32.4839 56.595 32.7179 57.163C33.1855 58.2952 33.7643 59.3782 34.4459 60.396C34.7873 60.9047 35.1519 61.396 35.5399 61.87C36.3161 62.8186 37.1851 63.6872 38.1339 64.463C39.0807 65.241 40.1023 65.923 41.1839 66.499C42.2637 67.078 43.3982 67.5483 44.5709 67.903C45.7431 68.2595 46.9476 68.4994 48.1669 68.619C49.3871 68.7374 50.6158 68.7374 51.8359 68.619C53.6671 68.4405 55.4616 67.9913 57.1609 67.286C57.7269 67.0513 58.2799 66.7893 58.8199 66.5C59.3606 66.2127 59.8863 65.8979 60.3949 65.557C61.413 64.8753 62.3628 64.0966 63.2309 63.232C64.0956 62.3638 64.8742 61.4141 65.5559 60.396C65.8973 59.8867 66.2116 59.3617 66.4989 58.821C67.0776 57.7409 67.5476 56.606 67.9019 55.433C68.261 54.2615 68.5009 53.0567 68.6179 51.837C68.7968 50.0056 68.7058 48.1579 68.3479 46.353C68.2259 45.7538 68.0764 45.1605 67.8999 44.575C67.7199 43.9891 67.513 43.4119 67.2799 42.845C66.8087 41.7151 66.2293 40.6334 65.5499 39.615C64.8706 38.596 64.0918 37.6471 63.2249 36.782C62.7911 36.3497 62.3376 35.9376 61.8659 35.547C61.3916 35.16 60.8997 34.7949 60.3919 34.453C59.3722 33.7737 58.2892 33.1947 57.1579 32.724C56.5933 32.4907 56.0179 32.284 55.4319 32.104C54.8454 31.9275 54.2511 31.778 53.6509 31.656C52.4497 31.4161 51.2279 31.2949 50.0029 31.294ZM50.0029 59.586C47.4618 59.584 45.0251 58.5746 43.2269 56.779C42.335 55.8903 41.6287 54.8331 41.1489 53.669C40.6674 52.5057 40.4193 51.259 40.4189 50C40.4189 49.3733 40.4799 48.7507 40.6019 48.132C41.0997 45.6396 42.5655 43.4463 44.6779 42.033C45.7249 41.3337 46.8992 40.8471 48.1339 40.601C48.7495 40.4794 49.3755 40.4184 50.0029 40.419C50.6323 40.419 51.2556 40.4797 51.8729 40.601C53.1073 40.8472 54.2813 41.3338 55.3279 42.033C56.3747 42.732 57.2737 43.6301 57.9739 44.676C59.3843 46.7905 59.8985 49.3779 59.4039 51.871C59.032 53.7295 58.1183 55.4363 56.7779 56.7763C55.4375 58.1163 53.7305 59.0296 51.8719 59.401C51.2561 59.5237 50.6308 59.5856 50.0029 59.586ZM50.0029 41.4C48.8736 41.3998 47.7554 41.622 46.7119 42.054C45.6691 42.4882 44.7208 43.1213 43.9199 43.918C43.5232 44.3185 43.1649 44.7554 42.8499 45.223C42.2247 46.1635 41.7886 47.2168 41.5659 48.324C41.2911 49.7118 41.3621 51.1459 41.7727 52.4997C42.1832 53.8536 42.9206 55.0856 43.9199 56.087C45.1258 57.2869 46.6581 58.1056 48.3259 58.441C49.9947 58.7705 51.7236 58.6 53.2959 57.951C54.3384 57.5167 55.2864 56.8836 56.0869 56.087C56.884 55.2863 57.5175 54.3379 57.9519 53.295C58.6025 51.7227 58.772 49.9927 58.4389 48.324C58.2194 47.2158 57.7832 46.1618 57.1552 45.2226C56.5273 44.2834 55.7201 43.4774 54.7799 42.851C53.8415 42.2239 52.7888 41.7876 51.6819 41.567C51.1289 41.4557 50.5671 41.3998 50.0029 41.4Z" fill="white"/>
</g>
<defs>
<clipPath id="clip0_2277_20">
<rect width="100" height="100" fill="white"/>
</clipPath>
</defs>
</svg>
