<svg width="101" height="100" viewBox="0 0 101 100" fill="none" xmlns="http://www.w3.org/2000/svg">
<g clip-path="url(#clip0_2235_95)">
<path d="M52.9371 50.488H100.506C100.603 50.4935 100.7 50.4673 100.781 50.4131C100.862 50.359 100.924 50.28 100.956 50.188C100.999 50.1003 101.012 50.0009 100.994 49.9049C100.976 49.809 100.927 49.7216 100.854 49.656L52.1171 0.145999C52.0717 0.0991684 52.0173 0.0620705 51.9571 0.036969C51.8969 0.0118674 51.8323 -0.000711578 51.7671 -5.15312e-07H1.07208C0.974383 -0.00450239 0.877792 0.0222522 0.796332 0.0763789C0.714873 0.130506 0.652785 0.209187 0.619083 0.300999C0.576821 0.388577 0.563729 0.48739 0.581726 0.582951C0.599722 0.678512 0.64786 0.765794 0.719083 0.831999L48.6391 49.509H1.07208C0.97358 49.5022 0.875574 49.528 0.793171 49.5824C0.710767 49.6368 0.648541 49.7168 0.616083 49.81C0.572523 49.898 0.558913 49.9977 0.577328 50.0941C0.595742 50.1905 0.645172 50.2783 0.718083 50.344L49.4581 99.854C49.5031 99.9013 49.5574 99.9387 49.6177 99.9639C49.678 99.989 49.7428 100.001 49.8081 100H100.506C100.604 100.005 100.7 99.979 100.781 99.9247C100.863 99.8704 100.924 99.7912 100.956 99.699C100.999 99.6114 101.012 99.5122 100.994 99.4165C100.975 99.3207 100.926 99.2335 100.854 99.168L52.9371 50.488ZM2.24208 0.979999H51.5551L99.3361 49.51H50.0231L2.24208 0.979999ZM50.0151 99.022L2.24208 50.488H51.5551L99.3361 99.021H50.0161L50.0151 99.022Z" fill="white"/>
</g>
<defs>
<clipPath id="clip0_2235_95">
<rect width="101" height="100" fill="white"/>
</clipPath>
</defs>
</svg>
