<svg width="100" height="100" viewBox="0 0 100 100" fill="none" xmlns="http://www.w3.org/2000/svg">
<g clip-path="url(#clip0_2235_81)">
<path d="M99.7501 48.413C99.6774 48.3772 99.595 48.3662 99.5155 48.3817C99.4361 48.3973 99.3639 48.4385 99.3101 48.499L83.9231 63.939V32.652C83.9272 32.5709 83.9049 32.4906 83.8595 32.4233C83.814 32.356 83.7479 32.3053 83.6711 32.279C83.5983 32.2429 83.5157 32.2318 83.436 32.2474C83.3563 32.2629 83.284 32.3042 83.2301 32.365L67.8431 47.805V16.52C67.8407 16.4431 67.815 16.3688 67.7695 16.3069C67.7239 16.2449 67.6607 16.1982 67.5881 16.173C67.5179 16.1417 67.44 16.1324 67.3645 16.1464C67.289 16.1603 67.2194 16.1967 67.1651 16.251L51.7801 31.69V0.404964C51.7821 0.325303 51.7591 0.247007 51.7142 0.181147C51.6694 0.115288 51.6049 0.065199 51.5301 0.0379643C51.4583 0.00323093 51.3774 -0.00773904 51.299 0.00664619C51.2206 0.0210314 51.1488 0.0600234 51.0941 0.117964L0.492059 50.916C0.434553 50.9706 0.395831 51.042 0.381458 51.12C0.367084 51.1979 0.377797 51.2785 0.412059 51.35C0.437848 51.4254 0.487309 51.4905 0.553078 51.5355C0.618847 51.5806 0.697406 51.6032 0.777059 51.6H31.9371L16.5701 67.042C16.5099 67.0967 16.4689 67.1692 16.4531 67.249C16.4373 67.3287 16.4474 67.4114 16.4821 67.485C16.5521 67.6516 16.6767 67.735 16.8561 67.735H48.0101L32.6361 83.175C32.5759 83.2297 32.5349 83.3022 32.5191 83.382C32.5033 83.4617 32.5134 83.5444 32.5481 83.618C32.6167 83.7846 32.7411 83.868 32.9211 83.868H64.0811L48.7051 99.308C48.6454 99.363 48.605 99.4358 48.5897 99.5155C48.5744 99.5952 48.5851 99.6777 48.6201 99.751C48.6461 99.8272 48.6963 99.8929 48.7631 99.9381C48.8299 99.9832 48.9096 100.005 48.9901 100.001H99.5951C99.6479 100.001 99.7004 99.9911 99.7493 99.971C99.7982 99.9509 99.8426 99.9213 99.8801 99.884C99.9186 99.8462 99.9491 99.8011 99.9697 99.7512C99.9903 99.7014 100.001 99.6479 100 99.594V48.804C100.009 48.7202 99.9891 48.6359 99.9436 48.565C99.8982 48.4941 99.8299 48.4408 99.7501 48.414V48.413ZM1.75706 50.788L50.9771 1.38596V32.503L32.7491 50.788H1.75706ZM50.9771 33.636V50.788H33.8931L50.9771 33.636ZM17.8291 66.924L33.0821 51.6H51.3821C51.435 51.6001 51.4875 51.5898 51.5364 51.5695C51.5853 51.5493 51.6297 51.5195 51.6671 51.482C51.7471 51.402 51.7871 51.3056 51.7871 51.193V32.832L67.0491 17.512V48.626L48.8251 66.924H17.8281H17.8291ZM67.0491 49.772V66.922H49.9651L67.0491 49.772ZM33.8991 83.052L49.1551 67.736H67.4551C67.5082 67.7359 67.5607 67.7252 67.6096 67.7046C67.6586 67.684 67.7029 67.6539 67.7401 67.616C67.7781 67.5787 67.8083 67.5342 67.8289 67.4851C67.8495 67.436 67.8601 67.3832 67.8601 67.33V48.96L83.1191 33.636V64.751L64.8981 83.051H33.8981L33.8991 83.052ZM83.1191 65.902V83.052H66.0361L83.1181 65.902H83.1191ZM99.1901 99.18H49.9771L65.2321 83.864H83.5231C83.5767 83.8643 83.6298 83.8538 83.6792 83.8332C83.7287 83.8126 83.7735 83.7822 83.8111 83.744C83.8485 83.7064 83.8782 83.6618 83.8983 83.6127C83.9184 83.5636 83.9285 83.511 83.9281 83.458V65.09L99.1901 49.772V99.18Z" fill="white"/>
</g>
<defs>
<clipPath id="clip0_2235_81">
<rect width="100" height="100" fill="white"/>
</clipPath>
</defs>
</svg>
