<svg width="103" height="100" viewBox="0 0 103 100" fill="none" xmlns="http://www.w3.org/2000/svg">
<g clip-path="url(#clip0_2281_86)">
<path d="M103.002 39.908C103.002 17.904 85.1061 0 63.1121 0C61.587 0.000919803 60.0632 0.0890637 58.5481 0.264C53.9887 0.785943 49.5547 2.09645 45.4441 4.137C44.0753 4.81285 42.7474 5.56848 41.4671 6.4C40.185 7.228 38.9525 8.13055 37.7761 9.103C36.5969 10.0727 35.4756 11.1108 34.4181 12.212C33.36 13.3116 32.3657 14.4708 31.4401 15.684C27.0463 18.287 23.1959 21.7133 20.1001 25.775C15.6434 28.4162 11.7451 31.902 8.62412 36.037C7.58569 37.4107 6.63705 38.85 5.78412 40.346C4.93203 41.8424 4.17746 43.3923 3.52512 44.986C2.87268 46.5799 2.32388 48.2143 1.88212 49.879C0.996375 53.2121 0.547616 56.6462 0.547119 60.095C0.547119 82.1 18.4431 100 40.4361 100C41.9641 100 43.4831 99.912 45.0031 99.738C46.5189 99.5625 48.0233 99.3004 49.5091 98.953C50.9953 98.6065 52.4598 98.1731 53.8951 97.655C58.2151 96.1068 62.234 93.8213 65.7731 90.9C68.1321 88.9572 70.2582 86.7478 72.1091 84.316C76.5008 81.7108 80.3501 78.2848 83.4471 74.225C89.4037 70.694 94.338 65.6725 97.7641 59.655C98.6162 58.1586 99.3708 56.6087 100.023 55.015C100.678 53.4217 101.227 51.7868 101.666 50.121C102.552 46.7889 103.001 43.3558 103.002 39.908ZM29.9281 17.792C28.9381 19.2756 28.0485 20.8237 27.2651 22.426C25.5883 23.0154 23.9527 23.716 22.3691 24.523C24.5857 21.9605 27.1268 19.6978 29.9281 17.792ZM63.1021 78.84C41.6431 78.84 24.1821 61.372 24.1821 39.902C24.1821 37.0153 24.5011 34.1627 25.1391 31.344C25.7719 28.5351 26.7178 25.806 27.9591 23.208C31.9763 21.8399 36.1924 21.1472 40.4361 21.158C61.8921 21.158 79.3551 38.623 79.3551 60.095C79.3588 62.9748 79.0401 65.846 78.4051 68.655C77.7729 71.4652 76.8273 74.1957 75.5861 76.795C71.5698 78.1609 67.3553 78.8535 63.1131 78.845L63.1021 78.84ZM74.9661 78.004C73.9505 79.9575 72.7713 81.8215 71.4411 83.576C68.4738 85.328 65.2846 86.6737 61.9591 87.577C58.6358 88.4835 55.2059 88.9399 51.7611 88.934C30.2991 88.934 12.8411 71.468 12.8411 49.996C12.8348 45.7833 13.5182 41.5979 14.8641 37.606C16.2059 33.6128 18.1907 29.8655 20.7401 26.512C22.6313 25.3972 24.6142 24.4457 26.6671 23.668C24.3725 28.7709 23.1938 34.3049 23.2101 39.9C23.2101 61.903 41.1061 79.807 63.1001 79.807C67.1286 79.8148 71.1347 79.2078 74.9801 78.007L74.9661 78.004ZM80.3101 60.09C80.3101 38.086 62.4141 20.182 40.4201 20.182C36.3968 20.1768 32.3962 20.7848 28.5561 21.985C29.5741 20.0326 30.7535 18.1688 32.0821 16.413C35.0496 14.662 38.2388 13.3174 41.5641 12.415C44.8872 11.5073 48.3173 11.0509 51.7621 11.058C73.2211 11.058 90.6821 28.524 90.6821 49.993C90.6896 56.33 89.1424 62.5721 86.1761 68.172C85.1901 70.0296 84.0554 71.8044 82.7831 73.479C80.8919 74.5935 78.909 75.5446 76.8561 76.322C79.1535 71.2214 80.3355 65.6891 80.3231 60.095L80.3101 60.09ZM40.4361 99.03C18.9741 99.03 1.51612 81.562 1.51612 60.095C1.51758 56.9295 1.90443 53.776 2.66812 50.704C3.43127 47.631 4.56772 44.6629 6.05212 41.866C9.02505 36.2506 13.3302 31.4503 18.5901 27.886C16.4101 31.1382 14.7257 34.6964 13.5921 38.444C12.4547 42.1899 11.8804 46.0842 11.8881 49.999C11.8881 72.002 29.7811 89.906 51.7741 89.906C54.9141 89.91 58.0118 89.545 61.0671 88.811C64.1108 88.0825 67.0571 86.9949 69.8441 85.571C68.0252 87.6762 65.9863 89.5807 63.7621 91.252C60.4202 93.7612 56.6949 95.714 52.7301 97.035C48.7667 98.3594 44.615 99.0331 40.4361 99.03ZM73.6071 82.206C74.5998 80.7237 75.4895 79.1751 76.2701 77.571C77.9527 76.9863 79.5932 76.287 81.1801 75.478C78.963 78.0395 76.4216 80.3012 73.6201 82.206H73.6071ZM84.9481 72.115C87.1272 68.8623 88.8106 65.3038 89.9431 61.556C91.0803 57.8096 91.6555 53.9152 91.6501 50C91.6501 27.996 73.7571 10.097 51.7601 10.097C48.6313 10.0903 45.5129 10.4572 42.4711 11.19C39.4272 11.9176 36.4807 13.0052 33.6941 14.43C39.1937 8.06008 46.6125 3.64761 54.8351 1.856C57.5549 1.26615 60.3301 0.969128 63.1131 0.97C84.5691 0.97 102.032 18.435 102.032 39.908C102.032 41.488 101.936 43.068 101.744 44.638C101.164 49.3582 99.7252 53.9324 97.4991 58.135C96.7585 59.5318 95.9337 60.8823 95.0291 62.179C94.124 63.4759 93.1409 64.7165 92.0851 65.894C91.0293 67.0707 89.9029 68.1821 88.7121 69.222C87.5209 70.2615 86.2676 71.2276 84.9591 72.115H84.9481Z" fill="white"/>
</g>
<defs>
<clipPath id="clip0_2281_86">
<rect width="103" height="100" fill="white"/>
</clipPath>
</defs>
</svg>
